# xmcd CD database file
#
# Track frame offsets:
#	182
#	25532
#	45060
#	69260
#	81245
#	98952
#	125082
#	150422
#	167180
#	190750
#
# Disc length: 2721 seconds
#
# Revision: 0
# Processed by: cddbd v1.4PL0 Copyright (c) Steve Scherf et al.
# Submitted via: Feurio! 1.65 - http://www.feurio.com
#
DISCID=6f0a9f0a
DTITLE=Hubert Dingenskirchen and Kompagnons - Bis die Tage!
DYEAR=1900
DGENRE=blues
TTITLE0=Die Zeiten werden härter
TTITLE1=Bis die Tage!
TTITLE2=Sie ist fort
TTITLE3=Sie kommt nie mehr zurück
TTITLE4=Nachbarschaftsblues
TTITLE5=Sowas passiert immer nur mir
TTITLE6=Do you believe me
TTITLE7=Schenk mir'n Freund
TTITLE8=Stell' bitte keine Fragen
TTITLE9=Du hast mich in der Hand
EXTD=
EXTT0=
EXTT1=
EXTT2=
EXTT3=
EXTT4=
EXTT5=
EXTT6=
EXTT7=
EXTT8=
EXTT9=
PLAYORDER=
